<svg width="64" height="64" viewBox="0 0 64 64" fill="none" xmlns="http://www.w3.org/2000/svg">
<mask id="path-1-inside-1_22_68" fill="white">
<path fill-rule="evenodd" clip-rule="evenodd" d="M32 61C48.0163 61 61 48.0163 61 32C61 15.9837 48.0163 3 32 3C15.9837 3 3 15.9837 3 32C3 48.0163 15.9837 61 32 61ZM32.5 44C38.8513 44 44 38.8513 44 32.5C44 26.1487 38.8513 21 32.5 21C26.1487 21 21 26.1487 21 32.5C21 38.8513 26.1487 44 32.5 44Z"/>
</mask>
<path d="M59 32C59 46.9117 46.9117 59 32 59V63C49.1208 63 63 49.1208 63 32H59ZM32 5C46.9117 5 59 17.0883 59 32H63C63 14.8792 49.1208 1 32 1V5ZM5 32C5 17.0883 17.0883 5 32 5V1C14.8792 1 1 14.8792 1 32H5ZM32 59C17.0883 59 5 46.9117 5 32H1C1 49.1208 14.8792 63 32 63V59ZM42 32.5C42 37.7467 37.7467 42 32.5 42V46C39.9558 46 46 39.9558 46 32.5H42ZM32.5 23C37.7467 23 42 27.2533 42 32.5H46C46 25.0442 39.9558 19 32.5 19V23ZM23 32.5C23 27.2533 27.2533 23 32.5 23V19C25.0442 19 19 25.0442 19 32.5H23ZM32.5 42C27.2533 42 23 37.7467 23 32.5H19C19 39.9558 25.0442 46 32.5 46V42Z" fill="#85C7F2" mask="url(#path-1-inside-1_22_68)"/>
</svg>
