<svg width="64" height="64" viewBox="0 0 64 64" fill="none" xmlns="http://www.w3.org/2000/svg">
<g clip-path="url(#clip0_22_58)">
<path d="M59.4784 50.286C60.65 49.1145 60.65 47.215 59.4784 46.0434L45.6899 32.2548L59.4784 18.4662C60.65 17.2947 60.65 15.3952 59.4784 14.2236L50.9932 5.73832C49.8216 4.56674 47.9221 4.56675 46.7505 5.73832L32.9619 19.5269L18.4662 5.03121C17.2947 3.85964 15.3952 3.85964 14.2236 5.03122L5.73833 13.5165C4.56675 14.6881 4.56675 16.5876 5.73833 17.7591L20.234 32.2548L5.73833 46.7505C4.56676 47.9221 4.56675 49.8216 5.73833 50.9931L14.2236 59.4784C15.3952 60.65 17.2947 60.65 18.4662 59.4784L32.9619 44.9827L46.7505 58.7713C47.9221 59.9429 49.8216 59.9429 50.9932 58.7713L59.4784 50.286Z" fill="#C2E812"/>
</g>
<defs>
<clipPath id="clip0_22_58">
<rect width="64" height="64" fill="white"/>
</clipPath>
</defs>
</svg>
