<svg width="64" height="64" viewBox="0 0 64 64" fill="none" xmlns="http://www.w3.org/2000/svg">
<g clip-path="url(#clip0_22_59)">
<path d="M44.9828 31.5477L44.2756 32.2548L44.9828 32.9619L58.7713 46.7505C59.5524 47.5316 59.5524 48.7979 58.7713 49.5789L50.2861 58.0642C49.505 58.8453 48.2387 58.8453 47.4576 58.0642L33.669 44.2756L32.9619 43.5685L32.2548 44.2756L17.7591 58.7713C16.9781 59.5524 15.7118 59.5524 14.9307 58.7713L6.44543 50.286C5.66439 49.505 5.66439 48.2387 6.44543 47.4576L20.9411 32.9619L21.6482 32.2548L20.9411 31.5477L6.44543 17.052C5.66438 16.271 5.66438 15.0047 6.44543 14.2236L14.9307 5.73832C15.7118 4.95727 16.9781 4.95727 17.7591 5.73832L32.2548 20.234L32.9619 20.9411L33.669 20.234L47.4576 6.44542C48.2387 5.66438 49.505 5.66438 50.2861 6.44542L58.7713 14.9307C59.5524 15.7118 59.5524 16.9781 58.7713 17.7591L44.9828 31.5477Z" stroke="#C2E812" stroke-width="2"/>
</g>
<defs>
<clipPath id="clip0_22_59">
<rect width="64" height="64" fill="white"/>
</clipPath>
</defs>
</svg>
