<svg width="64" height="64" viewBox="0 0 64 64" fill="none" xmlns="http://www.w3.org/2000/svg">
<g clip-path="url(#clip0_17_8)">
<path d="M15.0019 1.14699L31.9999 18.145L48.9979 1.14699C49.2765 0.868357 49.6073 0.647333 49.9713 0.496537C50.3353 0.345742 50.7254 0.268127 51.1194 0.268127C51.5134 0.268127 51.9036 0.345742 52.2676 0.496537C52.6316 0.647333 52.9623 0.868357 53.2409 1.14699L62.8529 10.759C63.1316 11.0376 63.3526 11.3683 63.5034 11.7323C63.6542 12.0963 63.7318 12.4865 63.7318 12.8805C63.7318 13.2745 63.6542 13.6646 63.5034 14.0287C63.3526 14.3927 63.1316 14.7234 62.8529 15.002L45.8549 32L62.8529 48.998C63.1316 49.2766 63.3526 49.6073 63.5034 49.9713C63.6542 50.3353 63.7318 50.7255 63.7318 51.1195C63.7318 51.5135 63.6542 51.9036 63.5034 52.2677C63.3526 52.6317 63.1316 52.9624 62.8529 53.241L53.2409 62.853C52.9623 63.1316 52.6316 63.3526 52.2676 63.5034C51.9036 63.6542 51.5134 63.7318 51.1194 63.7318C50.7254 63.7318 50.3353 63.6542 49.9713 63.5034C49.6073 63.3526 49.2765 63.1316 48.9979 62.853L31.9999 45.855L15.0019 62.853C14.7233 63.1316 14.3926 63.3526 14.0286 63.5034C13.6646 63.6542 13.2744 63.7318 12.8804 63.7318C12.4864 63.7318 12.0963 63.6542 11.7323 63.5034C11.3682 63.3526 11.0375 63.1316 10.7589 62.853L1.14693 53.24C0.868296 52.9614 0.647272 52.6307 0.496476 52.2667C0.345681 51.9026 0.268066 51.5125 0.268066 51.1185C0.268066 50.7245 0.345681 50.3343 0.496476 49.9703C0.647272 49.6063 0.868296 49.2756 1.14693 48.997L18.1449 32L1.14693 15.002C0.868296 14.7234 0.647272 14.3927 0.496476 14.0287C0.345681 13.6646 0.268066 13.2745 0.268066 12.8805C0.268066 12.4865 0.345681 12.0963 0.496476 11.7323C0.647272 11.3683 0.868296 11.0376 1.14693 10.759L10.7589 1.14699C11.0375 0.868357 11.3682 0.647333 11.7323 0.496537C12.0963 0.345742 12.4864 0.268127 12.8804 0.268127C13.2744 0.268127 13.6646 0.345742 14.0286 0.496537C14.3926 0.647333 14.7233 0.868357 15.0019 1.14699Z" fill="#C2E812"/>
</g>
<defs>
<clipPath id="clip0_17_8">
<rect width="64" height="64" fill="white"/>
</clipPath>
</defs>
</svg>
