<svg width="64" height="64" viewBox="0 0 64 64" fill="none" xmlns="http://www.w3.org/2000/svg">
<g clip-path="url(#clip0_17_10)">
<path d="M51.12 1.26901C51.631 1.26901 52.143 1.46401 52.534 1.85501L62.145 11.466C62.536 11.857 62.731 12.369 62.731 12.881C62.731 13.393 62.536 13.904 62.145 14.295L44.441 32L62.145 49.705C62.536 50.095 62.731 50.607 62.731 51.119C62.731 51.631 62.536 52.143 62.145 52.534L52.534 62.145C52.143 62.536 51.631 62.731 51.119 62.731C50.8564 62.7313 50.5962 62.6797 50.3536 62.5791C50.1109 62.4785 49.8905 62.331 49.705 62.145L32 44.441L14.295 62.145C13.905 62.536 13.393 62.731 12.881 62.731C12.6182 62.7314 12.3579 62.6798 12.115 62.5793C11.8722 62.4787 11.6516 62.3311 11.466 62.145L1.85505 52.534C1.66893 52.3484 1.52134 52.1279 1.42078 51.885C1.32021 51.6422 1.26864 51.3819 1.26905 51.119C1.26905 50.607 1.46405 50.096 1.85505 49.705L19.559 32L1.85505 14.295C1.66905 14.1095 1.52153 13.8891 1.42097 13.6465C1.3204 13.4038 1.26877 13.1437 1.26905 12.881C1.26905 12.369 1.46405 11.857 1.85505 11.466L11.466 1.85501C11.857 1.46401 12.369 1.26901 12.881 1.26901C13.393 1.26901 13.904 1.46401 14.295 1.85501L32 19.559L49.705 1.85501C50.095 1.46401 50.608 1.26901 51.12 1.26901Z" stroke="#2846F9" stroke-width="2"/>
</g>
<defs>
<clipPath id="clip0_17_10">
<rect width="64" height="64" fill="white"/>
</clipPath>
</defs>
</svg>
