<svg width="72" height="32" viewBox="0 0 72 32" fill="none" xmlns="http://www.w3.org/2000/svg">
<g clip-path="url(#clip0_17_12)">
<path fill-rule="evenodd" clip-rule="evenodd" d="M8.56223 1.634L16.0002 9.073L23.4382 1.634C23.7168 1.35537 24.0476 1.13435 24.4116 0.98355C24.7756 0.832754 25.1657 0.75514 25.5597 0.75514C25.9537 0.75514 26.3439 0.832754 26.7079 0.98355C27.0719 1.13435 27.4026 1.35537 27.6812 1.634L30.3662 4.319C30.6449 4.59758 30.8659 4.92832 31.0167 5.29233C31.1675 5.65634 31.2451 6.04649 31.2451 6.4405C31.2451 6.83451 31.1675 7.22466 31.0167 7.58867C30.8659 7.95268 30.6449 8.28342 30.3662 8.562L22.9272 16L30.3662 23.438C30.6449 23.7166 30.8659 24.0473 31.0167 24.4113C31.1675 24.7753 31.2451 25.1655 31.2451 25.5595C31.2451 25.9535 31.1675 26.3437 31.0167 26.7077C30.8659 27.0717 30.6449 27.4024 30.3662 27.681L27.6812 30.366C27.4026 30.6446 27.0719 30.8657 26.7079 31.0164C26.3439 31.1672 25.9537 31.2449 25.5597 31.2449C25.1657 31.2449 24.7756 31.1672 24.4116 31.0164C24.0476 30.8657 23.7168 30.6446 23.4382 30.366L16.0002 22.927L8.56223 30.366C8.28365 30.6446 7.95291 30.8657 7.5889 31.0164C7.22489 31.1672 6.83474 31.2449 6.44073 31.2449C6.04672 31.2449 5.65657 31.1672 5.29256 31.0164C4.92855 30.8657 4.59781 30.6446 4.31923 30.366L1.63423 27.68C1.3556 27.4014 1.13458 27.0707 0.983781 26.7067C0.832985 26.3427 0.755371 25.9525 0.755371 25.5585C0.755371 25.1645 0.832985 24.7743 0.983781 24.4103C1.13458 24.0463 1.3556 23.7156 1.63423 23.437L9.07323 16L1.63423 8.562C1.3556 8.28342 1.13458 7.95268 0.983781 7.58867C0.832985 7.22466 0.755371 6.83451 0.755371 6.4405C0.755371 6.04649 0.832985 5.65634 0.983781 5.29233C1.13458 4.92832 1.3556 4.59758 1.63423 4.319L4.32023 1.634C4.59881 1.35537 4.92955 1.13435 5.29356 0.98355C5.65757 0.832754 6.04772 0.75514 6.44173 0.75514C6.83574 0.75514 7.22589 0.832754 7.5899 0.98355C7.95391 1.13435 8.28365 1.35537 8.56223 1.634Z" fill="#C2E812"/>
<path d="M56.1005 0C64.8655 0 71.9705 7.106 71.9705 15.87C71.9705 24.636 64.8655 31.741 56.1005 31.741C47.3355 31.741 40.2305 24.636 40.2305 15.871C40.2305 7.106 47.3345 0 56.1005 0ZM56.1005 9.405C55.2446 9.39436 54.3952 9.55373 53.6015 9.87388C52.8077 10.194 52.0854 10.6686 51.4764 11.27C50.8675 11.8714 50.384 12.5878 50.054 13.3775C49.724 14.1672 49.5541 15.0146 49.5541 15.8705C49.5541 16.7264 49.724 17.5738 50.054 18.3635C50.384 19.1532 50.8675 19.8696 51.4764 20.471C52.0854 21.0724 52.8077 21.547 53.6015 21.8671C54.3952 22.1873 55.2446 22.3466 56.1005 22.336C57.8013 22.3148 59.4253 21.6244 60.6206 20.4141C61.8158 19.2039 62.4861 17.5715 62.4861 15.8705C62.4861 14.1695 61.8158 12.5371 60.6206 11.3269C59.4253 10.1166 57.8013 9.42615 56.1005 9.405Z" fill="#85C7F2"/>
</g>
<defs>
<clipPath id="clip0_17_12">
<rect width="72" height="32" fill="white"/>
</clipPath>
</defs>
</svg>
